<?xml version="1.0" encoding="UTF-8"?>
<!DOCTYPE svg PUBLIC "-//W3C//DTD SVG 1.1//EN" "http://www.w3.org/Graphics/SVG/1.1/DTD/svg11.dtd">
<!-- Creator: Corel DESIGNER -->
<svg xmlns="http://www.w3.org/2000/svg" xml:space="preserve" width="3.88613in" height="0.72115in" version="1.1" style="shape-rendering:geometricPrecision; text-rendering:geometricPrecision; image-rendering:optimizeQuality; fill-rule:evenodd; clip-rule:evenodd"
viewBox="0 0 33.97 6.3"
 xmlns:xlink="http://www.w3.org/1999/xlink"
 xmlns:xodm="http://www.corel.com/coreldraw/odm/2003">
 <defs>
  <style type="text/css">
   <![CDATA[
    .fil1 {fill:#D10B0B}
    .fil0 {fill:black;fill-rule:nonzero}
   ]]>
  </style>
 </defs>
 <g id="Layer_x0020_2">
  <metadata id="CorelCorpID_0Corel-Layer"/>
  <g id="_2471325139744">
   <path class="fil0" d="M31.7 0.1l1.43 0c0.07,0 0.15,0.01 0.24,0.03 0.09,0.02 0.17,0.05 0.24,0.1 0.08,0.05 0.14,0.13 0.19,0.22 0.05,0.1 0.08,0.22 0.08,0.37l0 1.17c0,0.1 -0.01,0.2 -0.02,0.28 -0.01,0.08 -0.05,0.15 -0.1,0.21 -0.05,0.06 -0.12,0.11 -0.21,0.14 -0.09,0.03 -0.2,0.06 -0.35,0.06l0 0.06c0.26,0.01 0.45,0.08 0.58,0.19 0.12,0.12 0.18,0.3 0.18,0.54l0 1.88c0,0.26 -0.08,0.47 -0.25,0.62 -0.17,0.15 -0.43,0.23 -0.78,0.23l-1.24 0 0 -6.12zm0.89 2.26c0.21,0.07 0.35,0.07 0.41,-0.01 0.06,-0.08 0.1,-0.21 0.1,-0.41l0 -0.79c0,-0.04 -0,-0.09 -0.01,-0.14 -0.01,-0.05 -0.02,-0.09 -0.06,-0.13 -0.03,-0.04 -0.08,-0.06 -0.15,-0.07 -0.07,-0.01 -0.17,0.01 -0.29,0.05l0 1.49zm-0.02 3.04c0.21,0.07 0.35,0.07 0.43,-0.01 0.08,-0.08 0.12,-0.21 0.12,-0.41l0 -1.49c0,-0.04 -0.01,-0.09 -0.02,-0.14 -0.01,-0.05 -0.04,-0.09 -0.07,-0.13 -0.04,-0.04 -0.09,-0.06 -0.17,-0.07 -0.07,-0.01 -0.17,0.01 -0.29,0.05l0 2.2z"/>
   <path class="fil0" d="M30.33 0.1l0.85 0 0 4.95c0,0.26 -0.02,0.47 -0.07,0.63 -0.05,0.16 -0.12,0.28 -0.21,0.37 -0.09,0.08 -0.21,0.14 -0.35,0.17 -0.14,0.03 -0.29,0.04 -0.47,0.04 -0.17,0 -0.34,-0.01 -0.48,-0.04 -0.15,-0.03 -0.27,-0.08 -0.37,-0.17 -0.1,-0.09 -0.18,-0.21 -0.24,-0.37 -0.06,-0.16 -0.08,-0.37 -0.08,-0.63l0 -4.95 0.84 0 0 4.75c0,0.08 0,0.15 0.01,0.23 0.01,0.08 0.02,0.14 0.04,0.21 0.02,0.06 0.05,0.11 0.09,0.15 0.04,0.04 0.09,0.06 0.16,0.06 0.06,0 0.12,-0.02 0.15,-0.06 0.04,-0.04 0.07,-0.09 0.09,-0.15 0.02,-0.06 0.03,-0.13 0.04,-0.21 0.01,-0.08 0.01,-0.15 0.01,-0.23l0 -4.75z"/>
   <polygon class="fil0" points="26.75,6.22 26.75,5.64 28.48,5.32 28.76,6.22 "/>
   <polygon class="fil0" points="27.63,0.1 27.63,6.22 26.75,6.22 26.75,0.1 "/>
   <path class="fil0" d="M25.43 4.46l0.84 0 0 0.59c0,0.24 -0.02,0.45 -0.07,0.61 -0.05,0.16 -0.12,0.29 -0.21,0.38 -0.09,0.09 -0.21,0.15 -0.35,0.19 -0.14,0.03 -0.29,0.05 -0.47,0.05 -0.17,0 -0.34,-0.01 -0.48,-0.04 -0.15,-0.03 -0.27,-0.09 -0.37,-0.17 -0.1,-0.09 -0.18,-0.21 -0.24,-0.37 -0.06,-0.16 -0.08,-0.37 -0.08,-0.63l0 -3.92c0,-0.38 0.1,-0.67 0.3,-0.85 0.2,-0.18 0.48,-0.28 0.83,-0.28 0.36,0 0.63,0.09 0.83,0.28 0.2,0.18 0.3,0.47 0.3,0.85l0 1.03 -0.84 0 0 -0.82c0,-0.15 -0.02,-0.28 -0.05,-0.39 -0.03,-0.11 -0.12,-0.16 -0.25,-0.16 -0.13,0 -0.22,0.06 -0.25,0.17 -0.03,0.11 -0.05,0.24 -0.05,0.38l0 3.5c0,0.19 0.02,0.34 0.05,0.46 0.03,0.12 0.12,0.18 0.25,0.18 0.13,0 0.22,-0.06 0.24,-0.18 0.03,-0.12 0.04,-0.28 0.04,-0.46l0 -0.38z"/>
   <polygon class="fil0" points="21.22,0.1 22.18,0.1 22.37,4.17 21.57,4.17 "/>
   <polygon class="fil0" points="22,3.8 22.88,3.8 22.88,4.9 22,4.9 "/>
   <polygon class="fil0" points="22.48,4.17 22.67,0.1 23.63,0.1 23.28,4.17 "/>
   <polygon class="fil0" points="18.68,0.1 19.56,0.1 19.56,6.22 18.68,6.22 "/>
   <polygon class="fil0" points="19.56,2.87 19.8,2.87 19.99,0.1 20.95,0.1 20.41,3.11 20.95,6.22 19.99,6.22 19.71,3.31 19.56,3.31 "/>
   <path class="fil0" d="M16.85 1.69c0,0.22 0.03,0.4 0.1,0.56 0.07,0.16 0.16,0.3 0.27,0.43 0.11,0.13 0.22,0.25 0.35,0.37 0.12,0.12 0.24,0.24 0.35,0.37 0.11,0.13 0.2,0.28 0.27,0.45 0.07,0.17 0.1,0.37 0.1,0.6l0 0.8c0,0.19 -0.03,0.36 -0.1,0.49 -0.06,0.13 -0.15,0.24 -0.26,0.32 -0.11,0.08 -0.24,0.14 -0.39,0.18 -0.15,0.04 -0.31,0.05 -0.49,0.05 -0.35,-0.01 -0.62,-0.08 -0.82,-0.24 -0.2,-0.15 -0.3,-0.42 -0.3,-0.8l0 -0.91 0.83 0 0 0.61 0 0c0,0.08 0,0.15 0.01,0.21 0.01,0.07 0.02,0.13 0.04,0.18 0.02,0.05 0.05,0.09 0.09,0.12 0.04,0.03 0.09,0.04 0.16,0.04 0.06,0 0.12,-0.02 0.16,-0.05 0.04,-0.03 0.07,-0.07 0.09,-0.13 0.02,-0.05 0.03,-0.11 0.04,-0.18 0.01,-0.07 0.01,-0.14 0.01,-0.21l0 -0.26 0 0c0,-0.22 -0.03,-0.41 -0.1,-0.56 -0.07,-0.15 -0.15,-0.28 -0.25,-0.4 -0.1,-0.12 -0.21,-0.23 -0.32,-0.34 -0.11,-0.11 -0.22,-0.23 -0.32,-0.38 -0.1,-0.14 -0.18,-0.31 -0.25,-0.5 -0.07,-0.19 -0.1,-0.43 -0.1,-0.72l0 -0.74c0,-0.38 0.1,-0.66 0.31,-0.82 0.2,-0.16 0.48,-0.23 0.83,-0.22 0.35,0.01 0.63,0.08 0.83,0.24 0.2,0.15 0.3,0.42 0.3,0.8l0 1.03 -0.84 0 0 -0.73c0,-0.15 -0.02,-0.28 -0.05,-0.39 -0.03,-0.11 -0.12,-0.16 -0.25,-0.16 -0.13,0 -0.22,0.06 -0.25,0.17 -0.03,0.11 -0.05,0.24 -0.05,0.38l0 0.32z"/>
   <polygon class="fil0" points="13.22,0.1 14.18,0.1 14.37,6.22 13.68,6.22 "/>
   <polygon class="fil0" points="15.06,5.35 15.06,6.22 13.79,6.22 13.79,5.35 "/>
   <polygon class="fil0" points="14.48,6.22 14.67,0.1 15.63,0.1 15.17,6.22 "/>
   <path class="fil0" d="M12.78 5.04c0,0.26 -0.03,0.47 -0.08,0.63 -0.06,0.16 -0.13,0.28 -0.23,0.37 -0.1,0.09 -0.22,0.15 -0.35,0.17 -0.14,0.03 -0.29,0.04 -0.46,0.04 -0.17,0 -0.33,-0.01 -0.48,-0.04 -0.14,-0.03 -0.27,-0.09 -0.37,-0.17 -0.1,-0.09 -0.18,-0.21 -0.23,-0.37 -0.05,-0.16 -0.08,-0.37 -0.08,-0.63l0 -3.9c0,-0.38 0.1,-0.67 0.31,-0.86 0.2,-0.19 0.48,-0.28 0.84,-0.28 0.36,0 0.63,0.09 0.83,0.28 0.2,0.19 0.3,0.48 0.3,0.86l0.01 3.9zm-1.14 -4.26c-0.13,0 -0.21,0.06 -0.24,0.17 -0.03,0.12 -0.05,0.25 -0.05,0.39l0 3.49c0,0.19 0.02,0.34 0.05,0.46 0.03,0.12 0.12,0.18 0.25,0.18 0.13,0 0.22,-0.06 0.24,-0.18 0.03,-0.12 0.04,-0.28 0.04,-0.46l0 -3.49c0,-0.08 -0,-0.15 -0.01,-0.21 -0.01,-0.07 -0.02,-0.13 -0.04,-0.18 -0.02,-0.05 -0.05,-0.09 -0.09,-0.13 -0.04,-0.03 -0.09,-0.05 -0.15,-0.05z"/>
   <path class="fil0" d="M9.97 6.22l-1.43 0c-0.07,0 -0.15,-0.01 -0.24,-0.03 -0.09,-0.02 -0.17,-0.05 -0.24,-0.1 -0.08,-0.05 -0.14,-0.13 -0.19,-0.22 -0.05,-0.1 -0.08,-0.22 -0.08,-0.37l0 -1.17c0,-0.1 0.01,-0.2 0.02,-0.28 0.01,-0.08 0.05,-0.15 0.1,-0.21 0.05,-0.06 0.12,-0.11 0.21,-0.14 0.09,-0.03 0.2,-0.06 0.35,-0.06l0 -0.06c-0.26,-0.01 -0.45,-0.08 -0.58,-0.19 -0.12,-0.12 -0.18,-0.3 -0.18,-0.54l0 -1.88c0,-0.26 0.08,-0.47 0.25,-0.62 0.17,-0.15 0.43,-0.23 0.78,-0.23l1.24 0 0 6.12zm-0.89 -2.26c-0.21,-0.07 -0.35,-0.07 -0.41,0.01 -0.06,0.08 -0.1,0.21 -0.1,0.41l0 0.79c0,0.04 0,0.09 0.01,0.14 0.01,0.05 0.02,0.09 0.06,0.13 0.03,0.04 0.08,0.06 0.15,0.07 0.07,0.01 0.17,-0.01 0.29,-0.05l0 -1.49zm0.02 -3.04c-0.21,-0.07 -0.35,-0.07 -0.43,0.01 -0.08,0.08 -0.12,0.21 -0.12,0.41l0 1.49c0,0.04 0.01,0.09 0.02,0.14 0.01,0.05 0.04,0.09 0.07,0.13 0.04,0.04 0.09,0.06 0.17,0.07 0.07,0.01 0.17,-0.01 0.29,-0.05l0 -2.2z"/>
   <polygon class="fil0" points="7.23,0.1 7.23,0.67 5.5,0.99 5.22,0.1 "/>
   <polygon class="fil0" points="6.36,6.22 6.36,0.1 7.23,0.1 7.23,6.22 "/>
   <path class="fil0" d="M2.76 1.22c0,-0.26 0.03,-0.47 0.08,-0.63 0.06,-0.16 0.13,-0.28 0.23,-0.37 0.1,-0.09 0.22,-0.15 0.35,-0.17 0.14,-0.03 0.29,-0.04 0.46,-0.04 0.17,0 0.33,0.01 0.48,0.04 0.14,0.03 0.27,0.09 0.37,0.17 0.1,0.09 0.18,0.21 0.23,0.37 0.05,0.16 0.08,0.37 0.08,0.63l0 3.9c0,0.38 -0.1,0.67 -0.31,0.86 -0.2,0.19 -0.48,0.28 -0.84,0.28 -0.36,0 -0.63,-0.09 -0.83,-0.28 -0.2,-0.19 -0.3,-0.48 -0.3,-0.86l-0.01 -3.9zm1.14 4.26c0.13,0 0.21,-0.06 0.24,-0.17 0.03,-0.12 0.05,-0.25 0.05,-0.39l0 -3.49c0,-0.19 -0.02,-0.34 -0.05,-0.46 -0.03,-0.12 -0.12,-0.18 -0.25,-0.18 -0.13,0 -0.22,0.06 -0.24,0.18 -0.03,0.12 -0.04,0.28 -0.04,0.46l0 3.49c0,0.08 0,0.15 0.01,0.21 0.01,0.07 0.02,0.13 0.04,0.18 0.02,0.05 0.05,0.09 0.09,0.13 0.04,0.03 0.09,0.05 0.15,0.05z"/>
   <polygon class="fil0" points="2.27,6.22 1.4,6.22 1.4,0.1 2.27,0.1 "/>
   <polygon class="fil0" points="1.4,3.44 1.15,3.44 0.96,6.22 -0,6.22 0.54,3.2 -0,0.1 0.96,0.1 1.24,3 1.4,3 "/>
   <rect class="fil1" x="22" y="5.33" width="0.87" height="0.87"/>
  </g>
 </g>
</svg>
